<?xml version="1.0" standalone="no"?>
<!DOCTYPE svg PUBLIC "-//W3C//DTD SVG 20010904//EN"
 "http://www.w3.org/TR/2001/REC-SVG-20010904/DTD/svg10.dtd">
<svg version="1.0" xmlns="http://www.w3.org/2000/svg"
 width="1707.000000pt" height="1707.000000pt" viewBox="0 0 1707.000000 1707.000000"
 preserveAspectRatio="xMidYMid meet">
<metadata>
Created by potrace 1.14, written by Peter Selinger 2001-2017
</metadata>
<g transform="translate(0.000000,1707.000000) scale(0.100000,-0.100000)"
fill="#000000" stroke="none">
<path d="M11838 17065 c-3 -3 -18 -7 -34 -10 -46 -6 -107 -15 -134 -20 -14 -3
-43 -8 -65 -11 -22 -3 -67 -12 -100 -20 -33 -8 -69 -17 -80 -19 -65 -15 -195
-64 -290 -110 -345 -168 -644 -422 -950 -808 -55 -69 -103 -126 -107 -127 -14
-1 35 137 201 565 53 134 56 145 43 145 -6 0 -110 -75 -192 -138 -324 -253
-475 -471 -590 -849 -17 -57 -36 -103 -42 -103 -9 0 -5 234 7 350 1 19 6 71 9
115 4 44 9 98 11 120 3 22 7 65 10 95 8 69 16 140 20 160 14 75 25 173 20 178
-8 9 -44 -36 -129 -163 -98 -147 -152 -246 -220 -406 -32 -74 -61 -138 -66
-143 -25 -25 43 280 91 409 17 44 31 85 33 90 3 15 52 118 112 237 77 152 74
156 -42 53 -197 -176 -398 -486 -493 -760 -33 -96 -75 -254 -85 -320 -4 -22
-9 -56 -12 -75 -10 -61 -14 -633 -5 -671 5 -21 6 -41 2 -46 -10 -17 -47 -32
-58 -25 -29 19 -56 117 -107 387 -8 41 -34 209 -41 270 -4 28 -8 61 -11 75 -2
14 -6 79 -9 145 -4 66 -8 131 -11 144 -5 22 -6 22 -23 7 -38 -35 -111 -218
-136 -341 -37 -188 -49 -400 -32 -590 17 -198 128 -540 272 -840 32 -66 60
-123 62 -127 2 -5 0 -8 -6 -8 -6 0 -38 37 -72 83 -35 45 -65 84 -68 87 -3 3
-10 12 -16 22 -5 9 -32 47 -59 85 -228 316 -330 491 -435 743 l-39 95 -5 -60
c-5 -72 1 -548 8 -590 3 -16 7 -52 10 -79 26 -237 148 -557 321 -842 83 -137
91 -154 75 -154 -14 0 -41 27 -92 90 -20 25 -59 72 -86 105 -69 85 -210 282
-344 480 -63 94 -116 172 -119 175 -3 3 -36 51 -74 108 -38 56 -73 102 -78
102 -22 0 66 -409 129 -599 82 -248 285 -642 447 -870 60 -86 203 -266 261
-330 16 -18 41 -45 54 -60 13 -14 101 -104 195 -200 93 -96 165 -176 158 -179
-13 -4 -253 118 -381 194 -268 159 -577 448 -693 649 -48 81 -168 336 -168
354 0 6 -5 13 -11 16 -16 10 -4 -82 37 -285 40 -199 67 -287 128 -415 105
-223 256 -421 543 -715 217 -222 249 -260 224 -260 -37 0 -227 77 -391 160
-220 110 -359 219 -505 395 -76 92 -112 129 -146 149 l-31 19 6 -49 c24 -197
158 -483 312 -665 73 -86 86 -100 165 -174 150 -142 400 -319 619 -438 233
-128 285 -161 275 -177 -3 -4 -19 -6 -37 -5 -210 18 -523 174 -1016 504 -112
75 -211 141 -220 146 -9 6 -19 12 -22 15 -22 22 -119 70 -124 62 -11 -17 33
-113 91 -197 120 -174 218 -274 438 -443 28 -22 142 -86 235 -132 143 -72 370
-169 745 -320 167 -67 223 -96 210 -108 -3 -3 -148 -6 -322 -7 -175 -2 -329
-5 -343 -8 -14 -3 -63 -8 -110 -12 -46 -3 -87 -8 -90 -10 -3 -1 -32 -6 -65 -9
-33 -4 -82 -11 -110 -16 -27 -5 -66 -11 -85 -14 -99 -14 -229 -43 -459 -102
-142 -36 -276 -64 -303 -64 -55 0 -75 9 -185 81 -128 83 -177 94 -450 92 -145
0 -233 3 -233 9 0 6 25 44 55 85 30 42 55 78 55 82 0 4 -13 22 -29 41 -42 52
-128 106 -227 146 -49 19 -113 46 -142 60 l-53 24 20 34 c27 43 26 68 -3 103
-37 44 -114 81 -228 109 -56 14 -104 27 -106 28 -1 2 15 23 38 47 22 24 40 48
40 54 0 34 -57 78 -135 102 -80 25 -285 11 -402 -28 -19 -6 -36 -9 -39 -6 -3
2 -7 65 -9 138 -2 74 -7 157 -10 184 -49 401 -269 778 -683 1167 -213 201
-417 290 -532 235 -69 -33 -102 -114 -149 -366 -30 -160 -36 -165 -75 -63 -83
217 -284 418 -506 506 -25 10 -52 19 -60 21 -8 2 -35 8 -60 14 -71 16 -245 8
-311 -15 -111 -39 -237 -136 -317 -242 -15 -21 -29 -39 -32 -42 -16 -15 -74
-115 -105 -182 -37 -81 -44 -104 -106 -353 -74 -297 -118 -386 -276 -556 -32
-33 -64 -68 -73 -78 -26 -30 -63 -49 -110 -56 -47 -8 -190 -57 -275 -95 -158
-72 -349 -229 -485 -399 -37 -46 -170 -238 -170 -245 0 -2 -21 -40 -46 -83
-39 -65 -167 -321 -227 -453 -103 -229 -222 -609 -263 -840 -3 -14 -11 -61
-19 -105 -8 -44 -17 -100 -20 -125 -3 -25 -8 -56 -10 -70 -8 -51 -15 -221 -20
-450 -7 -337 -14 -444 -30 -490 -8 -22 -12 -40 -10 -40 3 0 0 -12 -6 -27 -6
-16 -13 -46 -15 -68 -3 -22 -14 -83 -25 -135 -12 -52 -23 -106 -26 -120 -4
-22 7 -37 64 -91 54 -51 82 -69 129 -84 77 -25 198 -25 286 -1 l68 19 82 -50
c135 -81 168 -98 278 -146 184 -79 390 -134 605 -161 140 -18 206 -21 435 -21
257 1 489 11 650 30 149 17 220 16 262 -3 84 -38 127 -119 124 -232 -3 -83
-80 -330 -103 -330 -9 0 -86 18 -172 40 -467 118 -594 138 -913 144 -102 2
-190 6 -195 9 -31 19 -422 28 -603 14 -271 -21 -512 -110 -635 -233 -62 -62
-96 -123 -120 -213 -22 -85 -16 -155 26 -328 12 -49 11 -56 -14 -115 -39 -93
-56 -155 -63 -230 -7 -70 2 -93 59 -153 11 -11 35 -45 55 -75 20 -30 41 -60
47 -66 16 -16 72 -44 87 -44 7 0 30 -19 50 -42 36 -41 38 -42 44 -20 8 28 27
28 54 0 23 -25 25 -34 10 -43 -20 -12 9 -33 75 -55 52 -17 98 -22 257 -27 233
-7 296 -6 368 7 30 5 71 12 90 15 33 5 151 28 215 41 17 3 82 7 145 9 161 5
281 -23 423 -97 98 -50 281 -173 323 -217 25 -24 92 -66 181 -112 199 -102
297 -170 358 -250 83 -108 116 -127 305 -169 121 -27 143 -29 350 -36 183 -7
185 -7 228 -36 99 -68 205 -89 412 -82 80 2 156 6 170 8 14 2 45 7 70 10 58 7
184 23 235 30 144 20 299 30 320 22 14 -5 13 -11 -10 -51 l-26 -44 45 -45 c26
-24 59 -47 75 -51 16 -3 32 -12 34 -19 3 -7 -9 -46 -25 -87 -29 -69 -31 -83
-32 -214 -2 -172 7 -260 40 -390 106 -417 316 -826 628 -1223 130 -165 137
-173 306 -342 141 -141 280 -261 407 -350 35 -24 63 -47 63 -51 0 -13 -45 -15
-230 -13 -539 6 -911 21 -1005 40 -11 3 -56 6 -100 8 -195 9 -396 -87 -454
-218 -39 -85 -48 -203 -21 -263 23 -52 119 -122 189 -138 36 -8 44 -17 46 -60
6 -87 50 -110 210 -109 66 0 129 2 140 5 82 23 74 25 125 -29 l47 -50 96 0
c84 0 101 3 130 22 49 33 59 35 87 16 110 -76 163 -75 350 4 74 31 142 60 150
65 23 12 188 58 240 66 25 4 54 9 65 11 11 2 43 6 70 9 28 3 66 8 85 10 19 3
64 7 100 10 76 6 125 11 240 25 47 6 105 13 130 16 36 4 239 44 410 79 40 9
122 24 160 30 19 3 60 10 90 15 30 5 75 12 100 15 25 3 56 8 70 10 14 2 50 7
80 10 30 4 84 10 120 15 36 5 97 12 135 15 39 4 81 8 95 11 14 2 75 7 135 10
103 6 112 5 138 -16 15 -12 27 -25 27 -30 0 -21 -175 -81 -303 -105 -114 -21
-223 -29 -522 -40 -401 -14 -420 -15 -500 -31 -51 -11 -149 -61 -176 -91 -89
-98 -106 -230 -55 -434 15 -57 28 -113 30 -124 15 -80 31 -113 72 -153 58 -55
98 -58 211 -16 l66 25 26 -25 c34 -33 175 -102 235 -116 64 -14 130 6 207 63
17 12 36 18 51 14 155 -36 158 -36 209 -21 27 8 64 24 83 35 l33 19 27 -25
c96 -89 159 -70 335 99 139 133 152 144 197 166 71 35 148 38 609 27 201 -5
269 1 525 48 74 13 151 27 170 30 19 3 55 10 80 15 25 5 73 14 107 20 70 12
77 13 183 30 41 7 84 14 95 16 10 2 37 6 60 9 22 3 63 10 90 15 28 5 68 12 90
15 22 3 51 7 65 10 14 2 36 6 50 9 14 2 53 9 87 16 35 6 75 13 90 16 16 3 35
7 43 9 8 2 30 7 49 10 46 8 166 40 296 80 61 18 135 39 165 46 172 38 293 82
342 126 67 60 64 191 -8 358 -10 22 -18 42 -19 45 -1 3 -16 37 -34 75 -84 181
-102 314 -66 491 25 119 88 264 124 283 25 14 127 29 241 36 52 3 110 8 129
10 18 3 77 7 130 10 53 4 107 8 121 10 14 2 59 7 100 10 41 3 86 8 100 10 14
2 50 6 80 10 168 18 210 24 380 54 215 38 527 118 558 143 6 6 12 8 12 5 0
-10 186 70 305 130 359 181 628 438 782 748 44 88 48 103 27 126 -20 22 -46
24 -77 7 -12 -7 -49 -20 -82 -29 -33 -8 -88 -24 -123 -34 -61 -18 -80 -17 -67
4 3 6 52 46 108 88 114 87 127 97 206 168 126 111 253 255 311 350 13 22 27
42 30 45 14 12 100 212 118 275 42 145 56 271 34 311 -15 28 0 49 134 192 66
70 145 154 174 187 29 33 56 62 60 65 3 3 21 25 40 50 19 25 38 50 43 55 118
149 290 451 365 643 28 71 74 225 88 295 26 133 40 340 25 379 -6 16 -8 16
-31 -5 -51 -46 -177 -153 -214 -182 -22 -16 -51 -39 -65 -51 -127 -102 -481
-297 -481 -265 0 10 86 90 146 136 173 135 340 293 449 426 123 149 228 403
281 674 2 11 6 31 9 45 3 14 8 41 11 60 4 19 8 44 10 55 10 49 16 125 10 125
-15 0 -336 -182 -594 -336 -73 -43 -149 -89 -170 -101 -90 -54 -201 -113 -213
-113 -14 0 -12 2 92 92 213 185 297 291 426 538 106 204 136 293 143 420 8
156 0 271 -26 375 -29 115 -76 247 -98 272 l-22 26 -26 -44 c-14 -24 -37 -75
-51 -114 -14 -38 -32 -83 -38 -100 -7 -16 -13 -32 -13 -35 -5 -21 -42 -109
-53 -125 -7 -11 -13 -26 -13 -34 0 -8 -26 -69 -59 -135 -57 -118 -141 -241
-148 -219 -3 7 16 80 41 163 25 83 48 161 50 173 2 12 12 60 22 107 15 69 19
130 19 320 0 207 -8 384 -20 430 -2 8 -6 33 -10 55 -12 85 -37 213 -56 285
-11 41 -22 85 -25 96 -5 27 -77 236 -97 283 -18 42 -23 33 -31 -49 -4 -36 -9
-81 -11 -100 -3 -19 -9 -84 -15 -145 -18 -185 -39 -315 -70 -430 -21 -75 -63
-200 -78 -230 -14 -27 -16 -28 -22 -10 -4 11 -8 67 -9 125 -5 393 -84 699
-341 1340 -46 113 -88 219 -94 235 -20 52 -38 78 -45 67 -3 -6 -5 -111 -4
-234 1 -123 -2 -229 -6 -237 -12 -20 -28 -6 -37 31 -3 18 -10 39 -15 48 -4 8
-17 44 -27 80 -11 36 -43 137 -70 225 -101 322 -185 597 -204 668 -7 26 -15
47 -19 47 -7 0 -34 -103 -45 -170 -2 -14 -6 -34 -9 -46 -3 -12 -7 -39 -10 -60
-4 -21 -8 -50 -11 -64 -5 -26 -9 -54 -19 -123 -3 -23 -8 -49 -10 -57 -2 -8 -7
-35 -10 -60 -8 -61 -25 -189 -30 -220 -3 -14 -7 -43 -11 -65 -16 -106 -43 -67
-50 73 -2 53 -7 115 -10 137 -3 22 -7 56 -10 75 -3 19 -7 46 -10 60 -2 14 -6
36 -9 50 -31 168 -162 632 -194 685 -3 6 -6 16 -8 24 -1 7 -6 18 -12 24 -17
17 -32 -12 -121 -235 -46 -115 -88 -207 -93 -205 -6 2 -26 32 -46 68 -58 104
-85 141 -142 195 -73 68 -164 128 -184 120 -9 -3 -29 -35 -46 -71 -16 -36 -33
-65 -38 -65 -10 0 -20 62 -22 145 -2 70 -17 111 -52 143 l-25 23 -21 -28 c-41
-52 -164 -173 -177 -173 -7 0 -20 26 -29 57 -19 65 -62 152 -98 201 -70 93
-178 126 -288 88 -45 -16 -72 -6 -139 53 -50 44 -51 41 33 139 25 30 47 62 50
72 7 29 -44 82 -121 124 -73 40 -89 58 -72 79 5 7 39 48 76 92 37 44 71 90 77
102 12 26 7 31 -122 131 -40 31 -91 73 -113 93 -49 43 -46 51 46 119 76 57 76
58 -4 224 -33 68 -60 130 -60 139 0 11 16 14 80 13 45 -1 84 1 89 4 4 3 13 27
21 53 16 60 60 121 102 144 45 23 165 23 238 -1 140 -47 246 -118 474 -316 16
-14 35 -31 42 -37 21 -21 21 -16 8 50 -8 34 -14 73 -14 87 0 22 4 19 36 -25
20 -28 40 -59 45 -70 6 -11 15 -29 22 -40 17 -28 80 -141 109 -195 89 -164
179 -319 189 -325 5 -4 10 9 10 27 3 67 12 148 25 231 12 80 15 94 20 120 3
16 7 38 9 50 1 12 6 34 10 50 l7 27 25 -26 c22 -24 98 -174 238 -472 51 -107
59 -111 71 -37 6 41 9 58 18 95 3 14 8 41 11 60 2 19 7 45 9 56 2 12 7 39 11
60 3 22 11 45 19 52 25 26 86 -115 212 -493 46 -137 84 -241 84 -230 1 11 3
29 6 40 27 136 25 417 -5 630 -15 104 -46 249 -75 349 -27 91 -32 136 -17 136
27 0 125 -131 173 -230 53 -109 109 -259 122 -326 3 -10 9 -40 15 -66 6 -26
13 -68 16 -95 7 -58 41 -198 54 -221 7 -13 11 -8 20 23 14 56 40 169 46 208 3
17 12 64 20 102 66 327 66 528 0 714 -34 98 -13 104 72 24 94 -90 224 -258
293 -381 26 -47 40 -53 41 -19 0 12 3 31 5 42 3 11 6 83 9 160 3 120 0 156
-20 250 -34 159 -94 336 -191 561 -52 121 -54 129 -16 110 32 -16 68 -56 188
-205 97 -120 102 -121 99 -16 -4 129 -34 229 -108 370 -83 155 -169 271 -351
470 -38 41 -66 78 -64 81 16 15 207 -99 304 -182 82 -70 84 -57 16 77 -116
224 -188 326 -359 508 -70 76 -107 121 -98 121 3 0 22 -7 42 -15 20 -8 38 -13
41 -10 13 12 -89 170 -186 290 -313 386 -766 642 -1307 739 -41 8 -156 24
-215 31 -70 8 -101 18 -90 29 13 13 423 15 630 3 162 -10 161 -9 -43 88 -191
91 -350 141 -512 161 -22 3 -46 7 -53 10 -31 10 -188 18 -337 18 -147 0 -350
-10 -364 -18 -3 -2 -35 -7 -71 -10 -36 -4 -74 -9 -85 -11 -11 -3 -38 -7 -59
-10 -21 -3 -48 -7 -60 -10 -54 -12 -96 -14 -96 -6 0 24 223 81 380 97 36 3 76
8 90 9 14 2 57 6 95 9 39 4 90 9 115 12 24 2 105 7 180 10 157 7 172 12 139
43 -46 42 -240 129 -325 145 -109 20 -162 26 -259 26 -313 3 -678 -120 -1130
-378 -133 -76 -391 -243 -434 -281 -13 -11 -27 -21 -31 -21 -3 0 -15 -8 -26
-18 -10 -10 -37 -31 -59 -47 -22 -16 -44 -34 -50 -40 -17 -19 -89 -65 -102
-65 -26 0 95 188 216 335 92 113 239 262 356 364 107 91 110 94 250 199 50 37
96 73 103 79 7 7 18 13 23 13 5 0 9 5 9 10 0 10 -33 14 -42 5z"/>
</g>
</svg>
